<svg width="574" height="317" viewBox="0 0 574 317" fill="none" xmlns="http://www.w3.org/2000/svg">
<path fill-rule="evenodd" clip-rule="evenodd" d="M251.018 22.04C275.597 19.32 300.403 19.32 324.983 22.04C338.411 23.5366 349.237 34.0905 350.814 47.5458C353.729 72.4279 353.729 97.5644 350.814 122.447C349.237 135.902 338.411 146.456 324.99 147.959C300.408 150.68 275.6 150.68 251.018 147.959C237.589 146.456 226.763 135.902 225.186 122.454C222.271 97.5692 222.271 72.4303 225.186 47.5458C226.763 34.0905 237.589 23.5366 251.018 22.04ZM293.148 109.704H262.035V57.3655H271.602V101.706H293.148V109.704ZM306.463 109.704H296.896V84.0785C296.896 78.9533 296.818 75.3036 296.585 71.8868H304.907L305.219 79.1086H305.53C307.397 73.7505 311.823 71.0326 315.875 71.0326C316.808 71.0326 317.353 71.1102 318.131 71.2656V80.2734C317.211 80.0712 316.272 79.9671 315.33 79.9628C310.734 79.9628 307.623 82.9137 306.774 87.1846C306.581 88.1568 306.477 89.1445 306.463 90.1355V109.704Z" fill="#2D2F2A"/>
<path fill-rule="evenodd" clip-rule="evenodd" d="M251.018 170.04C275.597 167.32 300.403 167.32 324.983 170.04C338.411 171.537 349.237 182.09 350.814 195.546C353.729 220.428 353.729 245.564 350.814 270.447C349.237 283.902 338.411 294.456 324.99 295.959C300.408 298.68 275.6 298.68 251.018 295.959C237.589 294.456 226.763 283.902 225.186 270.454C222.271 245.569 222.271 220.43 225.186 195.546C226.763 182.09 237.589 171.537 251.018 170.04Z" fill="#2D2F2A"/>
<path fill-rule="evenodd" clip-rule="evenodd" d="M454.018 170.04C478.597 167.32 503.403 167.32 527.983 170.04C541.411 171.537 552.237 182.09 553.814 195.546C556.729 220.428 556.729 245.564 553.814 270.447C552.237 283.902 541.411 294.456 527.99 295.959C503.408 298.68 478.6 298.68 454.018 295.959C440.589 294.456 429.763 283.902 428.186 270.454C425.271 245.569 425.271 220.43 428.186 195.546C429.763 182.09 440.589 171.537 454.018 170.04Z" fill="#2D2F2A"/>
<path d="M72.807 222.85L68.803 235.632H82.124L78.043 222.85C77.231 220.295 76.524 217.488 75.873 214.919C75.7249 214.328 75.5756 213.738 75.425 213.148H75.271C75.005 214.177 74.746 215.276 74.473 216.403C73.955 218.573 73.416 220.827 72.807 222.85Z" fill="#2D2F2A"/>
<path fill-rule="evenodd" clip-rule="evenodd" d="M47.39 170.574C71.7221 167.877 96.2778 167.877 120.61 170.574C133.903 172.058 144.62 182.523 146.181 195.865C149.066 220.538 149.066 245.462 146.181 270.135C144.62 283.477 133.903 293.942 120.617 295.433C96.2825 298.131 71.7244 298.131 47.39 295.433C34.097 293.942 23.38 283.477 21.819 270.142C18.9331 245.467 18.9331 220.54 21.819 195.865C23.38 182.523 34.097 172.058 47.39 170.574ZM111.524 220.001V257.5H101.976V220.001H111.524ZM101.444 209.529C101.444 206.603 103.593 204.37 106.75 204.37C109.991 204.37 111.993 206.603 112.07 209.529C112.07 212.378 109.984 214.611 106.68 214.611C103.523 214.611 101.444 212.378 101.444 209.529ZM88.438 257.5L83.741 242.793H67.263L62.797 257.5H53.018L69.65 205.602H81.739L98.602 257.5H88.438Z" fill="#2D2F2A"/>
<path d="M478.246 64.6996C475.659 64.6996 473.833 64.9278 472.844 65.1561V82.5031C473.985 82.8074 475.507 82.8835 477.409 82.8835C484.408 82.8835 488.669 79.4598 488.669 73.4492C488.669 67.7429 484.713 64.6996 478.246 64.6996Z" fill="#2D2F2A"/>
<path fill-rule="evenodd" clip-rule="evenodd" d="M454.826 23.3172C478.868 20.6522 503.132 20.6522 527.174 23.3172C540.309 24.7835 550.898 35.1239 552.441 48.3071C555.292 72.6859 555.292 97.314 552.441 121.693C550.898 134.876 540.309 145.216 527.181 146.69C503.136 149.355 478.87 149.355 454.826 146.69C441.691 145.216 431.101 134.876 429.559 121.7C426.708 97.3187 426.708 72.6882 429.559 48.3071C431.101 35.1239 441.691 24.7835 454.826 23.3172ZM472.844 109.208H463.561V58.6129C466.909 58.0042 471.55 57.5477 477.865 57.5477C484.713 57.5477 489.734 58.9933 493.006 61.7323C496.049 64.2431 498.027 68.2755 498.027 73.0687C498.027 77.9381 496.505 81.9705 493.614 84.7095C489.879 88.4376 484.028 90.1875 477.409 90.1875C475.659 90.1875 474.061 90.1114 472.844 89.8832V109.208ZM511.1 109.208H501.741V84.1008C501.741 79.0793 501.672 75.5034 501.437 72.1557H509.578L509.882 79.2315H510.187C512.013 73.9818 516.349 71.3188 520.306 71.3188C521.219 71.3188 521.758 71.3949 522.519 71.5471V80.3727C521.617 80.1741 520.697 80.0721 519.773 80.0684C515.284 80.0684 512.241 82.9596 511.404 87.1442C511.215 88.0967 511.113 89.0644 511.1 90.0353V109.208Z" fill="#2D2F2A"/>
<path fill-rule="evenodd" clip-rule="evenodd" d="M297.849 204C300.518 204 303.123 204.816 305.319 206.341C307.515 207.865 309.196 210.025 310.14 212.533C311.084 215.041 311.245 217.778 310.602 220.381C309.959 222.983 308.542 225.327 306.54 227.1C308.989 229.264 310.548 232.266 310.916 235.521C311.284 238.777 310.434 242.053 308.531 244.714C306.627 247.374 303.808 249.229 300.619 249.916C297.431 250.604 294.102 250.076 291.279 248.435V256.801C291.279 259.006 290.729 261.177 289.679 263.114C288.628 265.051 287.112 266.693 285.267 267.889C283.423 269.086 281.31 269.799 279.12 269.963C276.931 270.128 274.735 269.739 272.734 268.831C270.733 267.924 268.99 266.527 267.665 264.768C266.34 263.01 265.474 260.946 265.147 258.765C264.82 256.583 265.043 254.355 265.794 252.282C266.546 250.21 267.802 248.36 269.448 246.9C268.049 245.663 266.928 244.14 266.161 242.433C265.394 240.725 264.999 238.873 265.001 237C264.999 235.127 265.394 233.275 266.161 231.568C266.928 229.861 268.049 228.338 269.448 227.1C267.447 225.327 266.03 222.983 265.387 220.381C264.744 217.778 264.905 215.041 265.849 212.533C266.792 210.025 268.474 207.865 270.67 206.341C272.865 204.816 275.471 204 278.14 204H297.849ZM284.71 250.201H278.14C276.841 250.201 275.57 250.588 274.49 251.313C273.41 252.038 272.568 253.069 272.07 254.275C271.573 255.481 271.443 256.808 271.697 258.088C271.95 259.368 272.576 260.544 273.495 261.468C274.413 262.391 275.584 263.019 276.858 263.274C278.133 263.528 279.454 263.398 280.654 262.898C281.854 262.399 282.88 261.553 283.602 260.467C284.324 259.382 284.71 258.106 284.71 256.801V250.201ZM284.71 230.4H278.14C276.398 230.4 274.727 231.096 273.495 232.333C272.263 233.571 271.57 235.25 271.57 237C271.57 238.751 272.263 240.43 273.495 241.667C274.727 242.905 276.398 243.6 278.14 243.6H284.71V230.4ZM297.849 230.4C296.106 230.4 294.435 231.096 293.203 232.333C291.971 233.571 291.279 235.25 291.279 237C291.279 238.751 291.971 240.43 293.203 241.667C294.435 242.905 296.106 243.6 297.849 243.6C299.591 243.6 301.262 242.905 302.494 241.667C303.726 240.43 304.418 238.751 304.418 237C304.418 235.25 303.726 233.571 302.494 232.333C301.262 231.096 299.591 230.4 297.849 230.4ZM297.849 210.6H291.279V223.8H297.849C299.553 223.808 301.194 223.149 302.425 221.964C303.655 220.779 304.379 219.159 304.443 217.448C304.507 215.736 303.906 214.067 302.768 212.792C301.629 211.518 300.042 210.737 298.341 210.617L297.849 210.6ZM284.71 210.6H278.14C276.398 210.6 274.727 211.295 273.495 212.533C272.263 213.771 271.57 215.45 271.57 217.2C271.57 218.951 272.263 220.629 273.495 221.867C274.727 223.105 276.398 223.8 278.14 223.8H284.71V210.6Z" fill="#E1DED5"/>
<path d="M69.9549 64.2104C67.3058 64.2104 65.4358 64.4442 64.4299 64.6779V82.4429C65.5916 82.7546 67.1499 82.8325 69.1049 82.8325C76.2662 82.8325 80.6295 79.3263 80.6295 73.1708C80.6295 67.3271 76.5779 64.2104 69.9549 64.2104Z" fill="#2D2F2A"/>
<path fill-rule="evenodd" clip-rule="evenodd" d="M47.9543 21.8308C72.5761 19.1016 97.4241 19.1016 122.046 21.8308C135.497 23.3325 146.342 33.9221 147.921 47.4229C150.841 72.3892 150.841 97.6108 147.921 122.577C146.342 136.078 135.497 146.668 122.053 148.176C97.4289 150.906 72.5784 150.906 47.9543 148.176C34.503 146.668 23.6585 136.078 22.0789 122.584C19.1586 97.6155 19.1586 72.3916 22.0789 47.4229C23.6585 33.9221 34.503 23.3325 47.9543 21.8308ZM64.423 109.792H54.9172V57.9771C58.3455 57.3538 63.0984 56.8863 69.5655 56.8863C76.578 56.8863 81.7205 58.3667 85.078 61.1717C88.1947 63.7429 90.2134 67.8725 90.2134 72.7812C90.2134 77.7679 88.6551 81.8975 85.6943 84.7025C81.8764 88.5204 75.8768 90.3125 69.098 90.3125C67.306 90.3125 65.6697 90.2346 64.423 90.0008V109.792ZM102.461 110.649C97.8564 110.649 93.7339 109.48 90.9289 107.922L92.7989 100.987C94.9805 102.312 99.103 103.714 102.538 103.714C106.746 103.714 108.616 102 108.616 99.5067C108.616 96.9354 107.058 95.6108 102.383 93.9746C94.9805 91.4033 91.8639 87.3517 91.9418 82.9104C91.9418 76.2096 97.4668 70.9892 106.278 70.9892C110.486 70.9892 114.141 72.08 116.33 73.2487L114.46 80.0275C112.006 78.6487 109.249 77.8992 106.434 77.8458C103.006 77.8458 101.136 79.4821 101.136 81.8196C101.136 84.235 102.928 85.4038 107.759 87.1179C114.616 89.6113 117.81 93.1175 117.888 98.7275C117.888 105.584 112.505 110.649 102.461 110.649Z" fill="#2D2F2A"/>
<path d="M505.016 247.594V218.401L485.835 232.998M457.767 224.189C457.303 223.69 457.04 223.035 457.028 222.352C457.016 221.669 457.257 221.006 457.703 220.491L461.539 216.923C462.179 216.344 463.745 216.087 464.896 216.923L475.829 225.314L501.18 202.005C502.203 200.976 503.961 200.558 505.975 201.619L518.762 207.76C519.913 208.435 521 209.496 521 211.457V254.86C521 256.146 520.073 257.528 519.082 258.075L505.016 264.827C503.993 265.245 502.075 264.859 501.404 264.184L475.765 240.714L464.896 249.073C463.681 249.909 462.179 249.684 461.539 249.073L457.703 245.536C456.68 244.475 456.808 242.739 457.863 241.678L467.453 232.998" fill="#E1DED5"/>
</svg>
