<svg width="130" height="130" viewBox="0 0 130 130" fill="none" xmlns="http://www.w3.org/2000/svg">
<path fill-rule="evenodd" clip-rule="evenodd" d="M28.0176 2.04C52.5974 -0.680001 77.4029 -0.680001 101.983 2.04C115.411 3.53661 126.237 14.0905 127.814 27.5458C130.729 52.4279 130.729 77.5644 127.814 102.447C126.237 115.902 115.411 126.456 101.99 127.959C77.4077 130.68 52.5997 130.68 28.0176 127.959C14.5894 126.456 3.76334 115.902 2.18645 102.454C-0.728817 77.5692 -0.728817 52.4303 2.18645 27.5458C3.76334 14.0905 14.5894 3.53661 28.0176 2.04Z" fill="#2D2F2A"/>
<path d="M79.0159 79.594V50.4015L59.835 64.9978M31.767 56.1886C31.303 55.6896 31.0396 55.0353 31.0278 54.3523C31.016 53.6693 31.2566 53.0061 31.703 52.4913L35.5392 48.9226C36.1786 48.3439 37.745 48.0867 38.8959 48.9226L49.829 57.3138L75.1797 34.0048C76.2027 32.976 77.961 32.5581 79.975 33.619L92.7622 39.7597C93.9131 40.4349 95 41.4958 95 43.457V86.86C95 88.146 94.0729 89.5285 93.0819 90.075L79.0159 96.8266C77.9929 97.2445 76.0748 96.8587 75.4035 96.1836L49.765 72.7138L38.8959 81.0729C37.6811 81.9088 36.1786 81.6838 35.5392 81.0729L31.703 77.5364C30.68 76.4754 30.8079 74.7393 31.8629 73.6783L41.4533 64.9978" fill="#E1DED5"/>
</svg>
