<svg width="130" height="130" viewBox="0 0 130 130" fill="none" xmlns="http://www.w3.org/2000/svg">
<path fill-rule="evenodd" clip-rule="evenodd" d="M28.0176 2.04C52.5974 -0.680001 77.4029 -0.680001 101.983 2.04C115.411 3.53661 126.237 14.0905 127.814 27.5458C130.729 52.4279 130.729 77.5644 127.814 102.447C126.237 115.902 115.411 126.456 101.99 127.959C77.4077 130.68 52.5997 130.68 28.0176 127.959C14.5894 126.456 3.76334 115.902 2.18645 102.454C-0.728817 77.5692 -0.728817 52.4303 2.18645 27.5458C3.76334 14.0905 14.5894 3.53661 28.0176 2.04Z" fill="#2D2F2A"/>
<path fill-rule="evenodd" clip-rule="evenodd" d="M74.8487 36C77.5176 35.9998 80.1233 36.8162 82.319 38.3405C84.5147 39.8648 86.1962 42.0247 87.1399 44.5328C88.0836 47.0409 88.2446 49.7782 87.6016 52.3806C86.9585 54.9829 85.5419 57.3267 83.5402 59.1003C85.9885 61.2645 87.5483 64.266 87.9161 67.5214C88.284 70.7767 87.4337 74.0532 85.5306 76.7137C83.6275 79.3742 80.8076 81.2286 77.6191 81.9164C74.4307 82.6041 71.1016 82.0761 68.2791 80.435V88.8006C68.279 91.0063 67.7287 93.1768 66.6786 95.1138C65.6284 97.0508 64.1118 98.6925 62.2674 99.8891C60.423 101.086 58.3096 101.799 56.1202 101.963C53.9308 102.128 51.7353 101.739 49.7342 100.831C47.7331 99.9236 45.9903 98.5268 44.6649 96.7683C43.3396 95.0098 42.474 92.9458 42.1472 90.7646C41.8204 88.5835 42.0428 86.3549 42.7942 84.2824C43.5456 82.2099 44.8019 80.3595 46.4484 78.9005C45.0488 77.663 43.9281 76.1398 43.1612 74.4326C42.3942 72.7254 41.9986 70.8734 42.0008 69.0004C41.9986 67.1273 42.3942 65.2753 43.1612 63.5681C43.9281 61.8609 45.0488 60.3377 46.4484 59.1003C44.4467 57.3267 43.0301 54.9829 42.3871 52.3806C41.744 49.7782 41.9051 47.0409 42.8487 44.5328C43.7924 42.0247 45.474 39.8648 47.6697 38.3405C49.8654 36.8162 52.4711 35.9998 55.14 36H74.8487ZM61.7095 82.2005H55.14C53.8406 82.2005 52.5705 82.5876 51.4901 83.3128C50.4097 84.038 49.5677 85.0688 49.0705 86.2748C48.5732 87.4808 48.4431 88.8079 48.6966 90.0882C48.9501 91.3685 49.5758 92.5445 50.4946 93.4675C51.4133 94.3906 52.5839 95.0192 53.8583 95.2738C55.1327 95.5285 56.4536 95.3978 57.654 94.8982C58.8545 94.3987 59.8805 93.5528 60.6024 92.4674C61.3242 91.382 61.7095 90.1059 61.7095 88.8006V82.2005ZM61.7095 62.4003H55.14C53.3976 62.4003 51.7266 63.0957 50.4946 64.3334C49.2625 65.5712 48.5704 67.2499 48.5704 69.0004C48.5704 70.7508 49.2625 72.4296 50.4946 73.6673C51.7266 74.9051 53.3976 75.6004 55.14 75.6004H61.7095V62.4003ZM74.8487 62.4003C73.1063 62.4003 71.4353 63.0957 70.2033 64.3334C68.9713 65.5712 68.2791 67.2499 68.2791 69.0004C68.2791 70.7508 68.9713 72.4296 70.2033 73.6673C71.4353 74.9051 73.1063 75.6004 74.8487 75.6004C76.5911 75.6004 78.2621 74.9051 79.4941 73.6673C80.7261 72.4296 81.4183 70.7508 81.4183 69.0004C81.4183 67.2499 80.7261 65.5712 79.4941 64.3334C78.2621 63.0957 76.5911 62.4003 74.8487 62.4003ZM74.8487 42.6001H68.2791V55.8002H74.8487C76.5534 55.8079 78.1944 55.1495 79.4249 53.9641C80.6554 52.7788 81.3791 51.1593 81.443 49.4478C81.507 47.7364 80.9062 46.0669 79.7677 44.7922C78.6291 43.5175 77.0419 42.7374 75.3414 42.6166L74.8487 42.6001ZM61.7095 42.6001H55.14C53.3976 42.6001 51.7266 43.2954 50.4946 44.5332C49.2625 45.7709 48.5704 47.4497 48.5704 49.2001C48.5704 50.9506 49.2625 52.6293 50.4946 53.8671C51.7266 55.1049 53.3976 55.8002 55.14 55.8002H61.7095V42.6001Z" fill="#E1DED5"/>
</svg>
